<?xml version="1.0" standalone="no"?>
<!DOCTYPE svg PUBLIC "-//W3C//DTD SVG 20010904//EN"
 "http://www.w3.org/TR/2001/REC-SVG-20010904/DTD/svg10.dtd">
<svg version="1.0" xmlns="http://www.w3.org/2000/svg"
 width="80.000000pt" height="80.000000pt" viewBox="0 0 80.000000 80.000000"
 preserveAspectRatio="xMidYMid meet">
<metadata>
Created by potrace 1.11, written by Peter Selinger 2001-2013
</metadata>
<g transform="translate(0.000000,80.000000) scale(0.100000,-0.100000)"
fill="#000000" stroke="none">
<path d="M212 654 c-58 -70 -68 -185 -24 -275 28 -57 27 -62 -4 -118 l-25 -46
48 51 48 51 34 -23 c78 -55 185 -37 151 26 -5 10 -44 32 -87 50 -129 54 -163
93 -163 185 0 50 10 77 43 113 11 12 18 22 14 22 -3 0 -19 -16 -35 -36z"/>
<path d="M550 611 l-35 -42 -45 20 c-56 25 -81 26 -110 3 -32 -26 -14 -54 47
-78 138 -55 177 -87 193 -160 19 -83 -41 -180 -127 -203 -86 -24 -209 -7 -271
38 -39 27 -42 27 -42 -7 0 -40 52 -107 102 -133 52 -26 148 -35 207 -19 58 15
132 89 150 150 17 58 15 150 -4 196 -8 20 -28 52 -45 70 -16 19 -30 36 -30 39
0 2 12 26 26 54 15 31 24 64 22 83 l-3 31 -35 -42z"/>
</g>
</svg>
